<mxfile host="app.diagrams.net" agent="Mozilla/5.0 (Windows NT 10.0; Win64; x64) AppleWebKit/537.36 (KHTML, like Gecko) Chrome/121.0.0.0 Safari/537.36" version="26.0.9">
  <diagram name="Trang-1" id="6lGuHVi6pKAASTizhxIr">
    <mxGraphModel dx="1054" dy="1793" grid="1" gridSize="10" guides="1" tooltips="1" connect="1" arrows="1" fold="1" page="1" pageScale="1" pageWidth="827" pageHeight="1169" math="0" shadow="0">
      <root>
        <mxCell id="0" />
        <mxCell id="1" parent="0" />
        <mxCell id="htm-A_CO-N6HSeAtU-Kt-13" value="Network: bridge - webnet" style="whiteSpace=wrap;html=1;aspect=fixed;verticalAlign=top;" vertex="1" parent="1">
          <mxGeometry x="415" y="-40" width="390" height="390" as="geometry" />
        </mxCell>
        <mxCell id="htm-A_CO-N6HSeAtU-Kt-12" value="Network: bridge - bridge" style="whiteSpace=wrap;html=1;aspect=fixed;verticalAlign=top;" vertex="1" parent="1">
          <mxGeometry x="850" y="-40" width="390" height="390" as="geometry" />
        </mxCell>
        <mxCell id="htm-A_CO-N6HSeAtU-Kt-3" style="edgeStyle=orthogonalEdgeStyle;rounded=0;orthogonalLoop=1;jettySize=auto;html=1;entryX=0;entryY=0.5;entryDx=0;entryDy=0;" edge="1" parent="1" source="htm-A_CO-N6HSeAtU-Kt-1" target="htm-A_CO-N6HSeAtU-Kt-2">
          <mxGeometry relative="1" as="geometry" />
        </mxCell>
        <mxCell id="htm-A_CO-N6HSeAtU-Kt-4" value="&lt;div style=&quot;color: rgb(212, 212, 212); background-color: rgb(30, 30, 30); font-family: Consolas, &amp;quot;Courier New&amp;quot;, monospace; font-size: 14px; line-height: 19px; white-space-collapse: preserve;&quot;&gt;&lt;span style=&quot;color: #ce9178;&quot;&gt;http://localhost:3000&lt;/span&gt;&lt;/div&gt;" style="edgeLabel;html=1;align=center;verticalAlign=middle;resizable=0;points=[];" vertex="1" connectable="0" parent="htm-A_CO-N6HSeAtU-Kt-3">
          <mxGeometry x="-0.08" y="-3" relative="1" as="geometry">
            <mxPoint as="offset" />
          </mxGeometry>
        </mxCell>
        <mxCell id="htm-A_CO-N6HSeAtU-Kt-1" value="Client" style="rounded=0;whiteSpace=wrap;html=1;" vertex="1" parent="1">
          <mxGeometry x="160" y="250" width="120" height="60" as="geometry" />
        </mxCell>
        <mxCell id="htm-A_CO-N6HSeAtU-Kt-6" value="" style="edgeStyle=orthogonalEdgeStyle;rounded=0;orthogonalLoop=1;jettySize=auto;html=1;" edge="1" parent="1" source="htm-A_CO-N6HSeAtU-Kt-2" target="htm-A_CO-N6HSeAtU-Kt-5">
          <mxGeometry relative="1" as="geometry" />
        </mxCell>
        <mxCell id="htm-A_CO-N6HSeAtU-Kt-7" value="&lt;div style=&quot;color: rgb(212, 212, 212); background-color: rgb(30, 30, 30); font-family: Consolas, &amp;quot;Courier New&amp;quot;, monospace; font-size: 14px; line-height: 19px; white-space-collapse: preserve;&quot;&gt;&lt;span style=&quot;color: #ce9178;&quot;&gt;http://localhost:8080&lt;/span&gt;&lt;/div&gt;" style="edgeLabel;html=1;align=center;verticalAlign=middle;resizable=0;points=[];" vertex="1" connectable="0" parent="htm-A_CO-N6HSeAtU-Kt-6">
          <mxGeometry x="-0.255" y="1" relative="1" as="geometry">
            <mxPoint x="42" y="1" as="offset" />
          </mxGeometry>
        </mxCell>
        <mxCell id="htm-A_CO-N6HSeAtU-Kt-2" value="FrontEnd" style="rounded=0;whiteSpace=wrap;html=1;" vertex="1" parent="1">
          <mxGeometry x="550" y="250" width="120" height="60" as="geometry" />
        </mxCell>
        <mxCell id="htm-A_CO-N6HSeAtU-Kt-10" value="" style="edgeStyle=orthogonalEdgeStyle;rounded=0;orthogonalLoop=1;jettySize=auto;html=1;" edge="1" parent="1" source="htm-A_CO-N6HSeAtU-Kt-5" target="htm-A_CO-N6HSeAtU-Kt-9">
          <mxGeometry relative="1" as="geometry" />
        </mxCell>
        <mxCell id="htm-A_CO-N6HSeAtU-Kt-11" value="&lt;div style=&quot;color: rgb(212, 212, 212); background-color: rgb(30, 30, 30); font-family: Consolas, &amp;quot;Courier New&amp;quot;, monospace; font-size: 14px; line-height: 19px; white-space-collapse: preserve;&quot;&gt;&lt;span style=&quot;color: #ce9178;&quot;&gt;mongodb://database:27017/dev&lt;/span&gt;&lt;/div&gt;" style="edgeLabel;html=1;align=center;verticalAlign=middle;resizable=0;points=[];" vertex="1" connectable="0" parent="htm-A_CO-N6HSeAtU-Kt-10">
          <mxGeometry x="0.0541" relative="1" as="geometry">
            <mxPoint as="offset" />
          </mxGeometry>
        </mxCell>
        <mxCell id="htm-A_CO-N6HSeAtU-Kt-5" value="BackEnd" style="whiteSpace=wrap;html=1;rounded=0;" vertex="1" parent="1">
          <mxGeometry x="980" y="250" width="130" height="60" as="geometry" />
        </mxCell>
        <mxCell id="htm-A_CO-N6HSeAtU-Kt-9" value="MongoDB" style="whiteSpace=wrap;html=1;rounded=0;comic=0;" vertex="1" parent="1">
          <mxGeometry x="1500" y="250" width="120" height="60" as="geometry" />
        </mxCell>
      </root>
    </mxGraphModel>
  </diagram>
</mxfile>
